<svg width="15" height="15" viewBox="0 0 15 15" fill="none" xmlns="http://www.w3.org/2000/svg">
<path d="M3.125 4.875C2.1585 4.875 1.375 4.0915 1.375 3.125C1.375 2.1585 2.1585 1.375 3.125 1.375C4.0915 1.375 4.875 2.1585 4.875 3.125V11.875C4.875 12.8415 4.0915 13.625 3.125 13.625C2.1585 13.625 1.375 12.8415 1.375 11.875C1.375 10.9085 2.1585 10.125 3.125 10.125H11.875C12.8415 10.125 13.625 10.9085 13.625 11.875C13.625 12.8415 12.8415 13.625 11.875 13.625C10.9085 13.625 10.125 12.8415 10.125 11.875V3.125C10.125 2.1585 10.9085 1.375 11.875 1.375C12.8415 1.375 13.625 2.1585 13.625 3.125C13.625 4.0915 12.8415 4.875 11.875 4.875H3.125" stroke="#7367F0" stroke-width="1.5" stroke-linecap="round" stroke-linejoin="round"/>
</svg>
