<svg width="35" height="35" viewBox="0 0 35 35" fill="none" xmlns="http://www.w3.org/2000/svg">
<path d="M5.8335 11.6668V8.75016C5.8335 7.13933 7.13933 5.8335 8.75016 5.8335H11.6668" stroke="#2F2B3D" stroke-opacity="0.9" stroke-width="1.5" stroke-linecap="round" stroke-linejoin="round"/>
<path d="M5.8335 23.3335V26.2502C5.8335 27.861 7.13933 29.1668 8.75016 29.1668H11.6668" stroke="#2F2B3D" stroke-opacity="0.9" stroke-width="1.5" stroke-linecap="round" stroke-linejoin="round"/>
<path d="M23.3335 5.8335H26.2502C27.861 5.8335 29.1668 7.13933 29.1668 8.75016V11.6668" stroke="#2F2B3D" stroke-opacity="0.9" stroke-width="1.5" stroke-linecap="round" stroke-linejoin="round"/>
<path d="M23.3335 29.1668H26.2502C27.861 29.1668 29.1668 27.861 29.1668 26.2502V23.3335" stroke="#2F2B3D" stroke-opacity="0.9" stroke-width="1.5" stroke-linecap="round" stroke-linejoin="round"/>
<path d="M17.5002 16.0417V16.0563" stroke="#2F2B3D" stroke-opacity="0.9" stroke-width="1.5" stroke-linecap="round" stroke-linejoin="round"/>
<path d="M17.5002 26.2498L12.396 18.9582C11.0384 16.5045 11.6188 13.4322 13.7778 11.6428C15.9368 9.85344 19.0635 9.85344 21.2225 11.6428C23.3815 13.4322 23.9619 16.5045 22.6043 18.9582L17.5002 26.2498" stroke="#2F2B3D" stroke-opacity="0.9" stroke-width="1.5" stroke-linecap="round" stroke-linejoin="round"/>
</svg>
